PathFileType	4	(X/Y/Z)	C:/Users/opensim2020/Desktop/walking_exp_matlab/subject02_walking04_straight_03.trc	
DataRate	CameraRate	NumFrames	NumMarkers	Units	OrigDataRate	OrigDataStartFrame	OrigNumFrames	
100.00	100.00	4	42	mm	100.00	2317	222	
Frame#	Time	LFHD			RFHD			LBHD			RBHD			C7			T10			CLAV			STRN			RBAK			LSHO			LUPA			LELB			LFRM			LWRA			LWRB			LFIN			RSHO			RUPA			RELB			RFRM			RWRA			RWRB			RFIN			LASI			RASI			LPSI			RPSI			LTHI			LKNE			LTIB			LANK			LHEE			LTOE			RTHI			RKNE			RTIB			RANK			RHEE			RTOE			*39			*40			*41			
		X1	Y1	Z1	X2	Y2	Z2	X3	Y3	Z3	X4	Y4	Z4	X5	Y5	Z5	X6	Y6	Z6	X7	Y7	Z7	X8	Y8	Z8	X9	Y9	Z9	X10	Y10	Z10	X11	Y11	Z11	X12	Y12	Z12	X13	Y13	Z13	X14	Y14	Z14	X15	Y15	Z15	X16	Y16	Z16	X17	Y17	Z17	X18	Y18	Z18	X19	Y19	Z19	X20	Y20	Z20	X21	Y21	Z21	X22	Y22	Z22	X23	Y23	Z23	X24	Y24	Z24	X25	Y25	Z25	X26	Y26	Z26	X27	Y27	Z27	X28	Y28	Z28	X29	Y29	Z29	X30	Y30	Z30	X31	Y31	Z31	X32	Y32	Z32	X33	Y33	Z33	X34	Y34	Z34	X35	Y35	Z35	X36	Y36	Z36	X37	Y37	Z37	X38	Y38	Z38	X39	Y39	Z39	X40	Y40	Z40	X41	Y41	Z41	X42	Y42	Z42	

112	1.110	-1056.40454	36.06596	1749.10767	-913.51978	25.57054	1729.95300	-1076.27576	-82.14581	1657.47229	-936.48096	-104.61786	1635.54480	-989.67657	-136.93140	1527.91687	-969.70807	-199.54779	1254.70483	-1013.77576	1.22194	1455.45752	-1001.54401	47.65263	1283.25085	-907.76617	-190.71736	1360.99902	-1174.91687	-86.33221	1494.08374	-1251.21936	-144.90785	1302.25391	-1261.79053	-175.62296	1165.29968	-1279.81702	-192.61914	1034.25916	-1263.77124	-154.34212	899.94012	-1286.89783	-204.83653	911.86145	-1295.20886	-197.69548	845.57104	-814.86664	-34.25835	1502.10620	-710.13239	-22.81771	1321.91821	-682.50464	23.65952	1182.26624	-666.94086	86.36398	1078.12842	-692.24701	162.82069	968.90179	-650.42340	126.39156	954.82080	-653.05682	180.97856	908.37366	-1122.54407	29.36175	996.25043	-864.99481	40.63987	977.08423	-1031.66235	-177.72491	1031.04871	-916.75140	-177.66531	1030.44678	-1194.28357	34.09526	693.85999	-1169.88232	76.96188	500.26099	-1165.86646	56.71352	307.39124	-1149.25000	106.98345	87.58228	-1089.80627	92.77893	58.51889	-1196.73425	256.03555	66.53951	-811.05560	-51.53186	669.56036	-855.50903	-77.54560	460.60666	-849.08984	-141.23091	282.46072	-890.15198	-184.73808	93.17604	-944.33447	-226.60782	40.18090	-879.54254	-36.25403	36.19681	-976.38770	-81.34021	1799.76489	-3357.50073	2845.75317	1033.83191			 
113	1.120	-1057.82922	44.78867	1748.00012	-914.80554	34.32441	1729.18091	-1077.44592	-73.20894	1656.00171	-937.26843	-95.05396	1634.27161	-990.66345	-127.77116	1526.85400	-971.18298	-190.80724	1253.74121	-1014.65039	10.38606	1454.27246	-1002.05591	56.55420	1282.02136	-908.93628	-181.75925	1360.04504	-1175.91614	-77.04108	1492.87573	-1251.46655	-137.29315	1301.23792	-1261.69592	-169.34799	1164.54602	-1279.89050	-187.92680	1033.93347	-1263.77344	-151.34761	899.06915	-1286.57141	-201.81297	911.65710	-1294.85168	-195.68594	845.24829	-816.01257	-25.32781	1501.15698	-710.86932	-12.81259	1321.37671	-682.86707	35.37901	1182.27637	-667.92804	99.66151	1078.99133	-693.38599	177.58327	971.00439	-651.62823	141.31335	956.22986	-654.42151	196.84125	910.72388	-1123.00098	39.04156	995.10699	-865.26093	48.65104	976.27271	-1033.11011	-168.66827	1029.90625	-918.33984	-169.63614	1029.30249	-1194.74329	42.87712	692.29529	-1170.12024	87.91142	499.18723	-1168.29736	74.84949	305.85846	-1152.86096	133.59583	87.43801	-1094.15002	119.10414	57.59607	-1197.25696	284.35663	71.41108	-811.59576	-45.96921	668.78546	-856.20453	-73.75674	459.90994	-849.49286	-139.17978	282.52609	-890.39233	-184.35423	93.50726	-944.63000	-226.45645	40.57144	-879.40326	-36.22814	36.09990	-978.01050	-72.99924	1798.20825	-3360.28906	2845.20508	1033.63599			 
114	1.130	-1059.34644	53.47791	1746.88464	-916.58740	42.89562	1728.14050	-1078.68909	-64.28563	1654.51050	-939.08356	-86.65443	1633.14111	-991.87042	-118.64419	1525.69971	-972.76508	-182.12181	1252.76868	-1015.65533	19.59487	1453.03662	-1002.69116	65.52135	1280.73022	-910.08087	-173.00729	1359.09778	-1177.01245	-67.72089	1491.34290	-1252.27539	-129.31145	1300.34973	-1261.78772	-162.65703	1163.81799	-1279.74500	-182.93924	1033.50159	-1263.81055	-148.00517	898.13196	-1286.26428	-198.43523	911.41339	-1294.57202	-193.32191	844.89868	-817.07312	-16.16764	1500.35791	-711.64252	-2.72785	1320.91882	-683.35040	46.99250	1182.13818	-668.53784	112.50366	1079.58643	-694.76593	192.02289	972.95099	-652.88708	156.12318	957.53271	-655.90112	212.58360	912.98065	-1123.44763	48.77001	993.91516	-865.44763	56.58803	975.32190	-1034.71021	-159.47226	1028.61230	-920.01367	-161.51089	1028.09912	-1195.52734	51.73380	690.99030	-1170.73755	98.69987	498.13126	-1170.60632	92.30820	304.50970	-1156.39600	158.71645	87.91479	-1098.19836	144.01649	56.93537	-1197.17480	311.08978	76.72191	-812.10126	-40.26475	668.04480	-856.36383	-69.77046	459.38168	-849.86499	-137.06387	282.61960	-890.66357	-183.91545	93.96973	-944.89264	-226.58008	41.30932	-879.31549	-36.23843	36.01356	-979.40552	-64.29924	1797.06726	-3360.21851	2845.10864	1033.71252			 
115	1.140	-1060.85547	62.19287	1745.69727	-918.05237	51.61382	1727.08850	-1080.06604	-55.30760	1653.01233	-939.91925	-77.09172	1631.58801	-993.27521	-109.50818	1524.50391	-974.54504	-173.35176	1251.63818	-1016.76160	28.75497	1451.74011	-1003.39465	74.46539	1279.38403	-911.47992	-164.29480	1358.03198	-1178.31738	-58.18630	1489.99915	-1252.73718	-121.21227	1299.15979	-1261.99158	-155.63708	1163.09705	-1279.58899	-177.77908	1032.90369	-1263.93823	-144.25481	897.17059	-1286.08667	-194.63280	911.04260	-1294.35999	-190.52512	844.47516	-818.32727	-7.48593	1499.28564	-712.62677	7.33214	1320.28870	-684.00171	58.34111	1181.91602	-669.51239	125.32977	1080.13806	-696.11176	206.62372	974.87866	-654.18567	170.69499	958.64551	-657.40686	227.59215	914.91711	-1123.85913	58.63048	992.69965	-865.76019	64.95708	974.29053	-1036.48279	-150.14619	1027.12122	-921.76404	-153.23584	1026.77893	-1196.59448	60.72870	689.87805	-1171.74280	109.32410	497.08691	-1172.83289	108.98491	303.29514	-1159.48718	182.31767	88.61275	-1102.49365	167.11499	56.65204	-1196.83887	335.89539	82.28316	-812.60089	-34.50834	667.23615	-856.92004	-65.59390	458.74756	-850.23553	-134.95427	282.63620	-890.87659	-183.45360	94.50002	-945.24481	-226.36261	42.00430	-879.18286	-36.19309	35.95353	-981.21167	-55.75673	1795.77148	-3360.28833	2845.17554	1033.72095			 
